<svg width="616" height="216" viewBox="0 0 616 216" fill="none" xmlns="http://www.w3.org/2000/svg">
<path d="M284.54 99.1768V105.737H245.016V47.5169H283.802V54.0769H252.396V72.9368H279.702V79.0868H252.396V99.1768H284.54Z" fill="black"/>
<path d="M284.54 99.1768V105.737H245.016V47.5169H283.802V54.0769H252.396V72.9368H279.702V79.0868H252.396V99.1768H284.54Z" fill="#292929"/>
<path d="M316.076 103.605C315.638 103.823 315.064 104.097 314.354 104.425C313.643 104.698 312.823 104.999 311.894 105.327C311.019 105.6 310.035 105.819 308.942 105.983C307.903 106.201 306.81 106.311 305.662 106.311C303.038 106.311 300.769 105.6 298.856 104.179C296.942 102.703 295.986 100.434 295.986 97.3728V68.5909H290.164V62.9329H295.986V48.6649H303.202V62.9329H312.796V68.5909H303.202V95.1588C303.311 96.7441 303.83 97.8921 304.76 98.6028C305.689 99.3134 306.782 99.6688 308.04 99.6688C309.461 99.6688 310.746 99.4501 311.894 99.0128C313.096 98.5208 313.916 98.1381 314.354 97.8648L316.076 103.605Z" fill="black"/>
<path d="M316.076 103.605C315.638 103.823 315.064 104.097 314.354 104.425C313.643 104.698 312.823 104.999 311.894 105.327C311.019 105.6 310.035 105.819 308.942 105.983C307.903 106.201 306.81 106.311 305.662 106.311C303.038 106.311 300.769 105.6 298.856 104.179C296.942 102.703 295.986 100.434 295.986 97.3728V68.5909H290.164V62.9329H295.986V48.6649H303.202V62.9329H312.796V68.5909H303.202V95.1588C303.311 96.7441 303.83 97.8921 304.76 98.6028C305.689 99.3134 306.782 99.6688 308.04 99.6688C309.461 99.6688 310.746 99.4501 311.894 99.0128C313.096 98.5208 313.916 98.1381 314.354 97.8648L316.076 103.605Z" fill="#292929"/>
<path d="M360.73 105.737H353.514V81.7928C353.514 77.3648 352.748 74.0848 351.218 71.9529C349.687 69.7662 347.446 68.6729 344.494 68.6729C343.072 68.6729 341.651 68.9735 340.23 69.5749C338.808 70.1215 337.469 70.8869 336.212 71.8709C335.009 72.8549 333.916 74.0302 332.932 75.3968C332.002 76.7635 331.292 78.2668 330.8 79.9068V105.737H323.584V45.877H330.8V72.1169C332.494 69.0009 334.79 66.5682 337.688 64.8189C340.585 63.0696 343.756 62.1949 347.2 62.1949C349.714 62.1949 351.846 62.6596 353.596 63.5889C355.345 64.5182 356.739 65.7755 357.778 67.3609C358.816 68.9462 359.554 70.8595 359.992 73.1008C360.484 75.2875 360.73 77.6382 360.73 80.1528V105.737Z" fill="black"/>
<path d="M360.73 105.737H353.514V81.7928C353.514 77.3648 352.748 74.0848 351.218 71.9529C349.687 69.7662 347.446 68.6729 344.494 68.6729C343.072 68.6729 341.651 68.9735 340.23 69.5749C338.808 70.1215 337.469 70.8869 336.212 71.8709C335.009 72.8549 333.916 74.0302 332.932 75.3968C332.002 76.7635 331.292 78.2668 330.8 79.9068V105.737H323.584V45.877H330.8V72.1169C332.494 69.0009 334.79 66.5682 337.688 64.8189C340.585 63.0696 343.756 62.1949 347.2 62.1949C349.714 62.1949 351.846 62.6596 353.596 63.5889C355.345 64.5182 356.739 65.7755 357.778 67.3609C358.816 68.9462 359.554 70.8595 359.992 73.1008C360.484 75.2875 360.73 77.6382 360.73 80.1528V105.737Z" fill="#292929"/>
<path d="M391.713 106.557C388.487 106.557 385.535 105.983 382.857 104.835C380.178 103.632 377.882 102.019 375.969 99.9968C374.055 97.9741 372.552 95.6234 371.459 92.9448C370.42 90.2115 369.901 87.3415 369.901 84.3348C369.901 81.3281 370.42 78.4855 371.459 75.8068C372.552 73.1282 374.055 70.7775 375.969 68.7549C377.937 66.7322 380.26 65.1469 382.939 63.9989C385.617 62.7962 388.569 62.1949 391.795 62.1949C395.02 62.1949 397.945 62.7962 400.569 63.9989C403.247 65.2015 405.516 66.8142 407.375 68.8369C409.233 70.8049 410.655 73.1282 411.639 75.8068C412.677 78.4308 413.197 81.1642 413.197 84.0068C413.197 84.6081 413.169 85.1548 413.115 85.6468C413.115 86.1388 413.087 86.5215 413.033 86.7948H377.527C377.691 88.9268 378.183 90.8674 379.003 92.6168C379.823 94.3661 380.889 95.8694 382.201 97.1268C383.513 98.3841 384.989 99.3681 386.629 100.079C388.323 100.789 390.1 101.145 391.959 101.145C393.271 101.145 394.555 100.981 395.813 100.653C397.07 100.27 398.245 99.7781 399.339 99.1768C400.432 98.5754 401.389 97.8374 402.209 96.9628C403.083 96.0881 403.739 95.1041 404.177 94.0108L410.409 95.7328C409.698 97.3181 408.714 98.7668 407.457 100.079C406.254 101.391 404.833 102.539 403.193 103.523C401.607 104.452 399.831 105.19 397.863 105.737C395.895 106.283 393.845 106.557 391.713 106.557ZM406.391 81.4648C406.227 79.4422 405.707 77.5835 404.833 75.8888C404.013 74.1395 402.947 72.6635 401.635 71.4609C400.377 70.2582 398.901 69.3289 397.207 68.6729C395.512 67.9622 393.708 67.6069 391.795 67.6069C389.881 67.6069 388.077 67.9622 386.383 68.6729C384.688 69.3289 383.185 70.2855 381.873 71.5429C380.615 72.7455 379.577 74.1942 378.757 75.8888C377.991 77.5835 377.527 79.4422 377.363 81.4648H406.391Z" fill="black"/>
<path d="M391.713 106.557C388.487 106.557 385.535 105.983 382.857 104.835C380.178 103.632 377.882 102.019 375.969 99.9968C374.055 97.9741 372.552 95.6234 371.459 92.9448C370.42 90.2115 369.901 87.3415 369.901 84.3348C369.901 81.3281 370.42 78.4855 371.459 75.8068C372.552 73.1282 374.055 70.7775 375.969 68.7549C377.937 66.7322 380.26 65.1469 382.939 63.9989C385.617 62.7962 388.569 62.1949 391.795 62.1949C395.02 62.1949 397.945 62.7962 400.569 63.9989C403.247 65.2015 405.516 66.8142 407.375 68.8369C409.233 70.8049 410.655 73.1282 411.639 75.8068C412.677 78.4308 413.197 81.1642 413.197 84.0068C413.197 84.6081 413.169 85.1548 413.115 85.6468C413.115 86.1388 413.087 86.5215 413.033 86.7948H377.527C377.691 88.9268 378.183 90.8674 379.003 92.6168C379.823 94.3661 380.889 95.8694 382.201 97.1268C383.513 98.3841 384.989 99.3681 386.629 100.079C388.323 100.789 390.1 101.145 391.959 101.145C393.271 101.145 394.555 100.981 395.813 100.653C397.07 100.27 398.245 99.7781 399.339 99.1768C400.432 98.5754 401.389 97.8374 402.209 96.9628C403.083 96.0881 403.739 95.1041 404.177 94.0108L410.409 95.7328C409.698 97.3181 408.714 98.7668 407.457 100.079C406.254 101.391 404.833 102.539 403.193 103.523C401.607 104.452 399.831 105.19 397.863 105.737C395.895 106.283 393.845 106.557 391.713 106.557ZM406.391 81.4648C406.227 79.4422 405.707 77.5835 404.833 75.8888C404.013 74.1395 402.947 72.6635 401.635 71.4609C400.377 70.2582 398.901 69.3289 397.207 68.6729C395.512 67.9622 393.708 67.6069 391.795 67.6069C389.881 67.6069 388.077 67.9622 386.383 68.6729C384.688 69.3289 383.185 70.2855 381.873 71.5429C380.615 72.7455 379.577 74.1942 378.757 75.8888C377.991 77.5835 377.527 79.4422 377.363 81.4648H406.391Z" fill="#292929"/>
<path d="M444.67 69.2469C441.062 69.3562 437.864 70.2855 435.076 72.0349C432.342 73.7842 430.402 76.2168 429.254 79.3328V105.737H422.038V62.9329H428.762V72.8548C430.238 69.9029 432.178 67.5249 434.584 65.7209C436.989 63.8622 439.558 62.8236 442.292 62.6049C442.838 62.6049 443.303 62.6049 443.686 62.6049C444.068 62.6049 444.396 62.6322 444.67 62.6869V69.2469Z" fill="black"/>
<path d="M444.67 69.2469C441.062 69.3562 437.864 70.2855 435.076 72.0349C432.342 73.7842 430.402 76.2168 429.254 79.3328V105.737H422.038V62.9329H428.762V72.8548C430.238 69.9029 432.178 67.5249 434.584 65.7209C436.989 63.8622 439.558 62.8236 442.292 62.6049C442.838 62.6049 443.303 62.6049 443.686 62.6049C444.068 62.6049 444.396 62.6322 444.67 62.6869V69.2469Z" fill="#292929"/>
<path d="M470.628 106.557C467.402 106.557 464.45 105.983 461.772 104.835C459.093 103.632 456.797 102.019 454.884 99.9968C452.971 97.9741 451.467 95.6234 450.374 92.9448C449.335 90.2115 448.816 87.3415 448.816 84.3348C448.816 81.3281 449.335 78.4855 450.374 75.8068C451.467 73.1282 452.971 70.7775 454.884 68.7549C456.852 66.7322 459.175 65.1469 461.854 63.9989C464.532 62.7962 467.484 62.1949 470.71 62.1949C473.935 62.1949 476.86 62.7962 479.484 63.9989C482.162 65.2015 484.431 66.8142 486.29 68.8369C488.148 70.8049 489.57 73.1282 490.554 75.8068C491.592 78.4308 492.112 81.1642 492.112 84.0068C492.112 84.6081 492.084 85.1548 492.03 85.6468C492.03 86.1388 492.002 86.5215 491.948 86.7948H456.442C456.606 88.9268 457.098 90.8674 457.918 92.6168C458.738 94.3661 459.804 95.8694 461.116 97.1268C462.428 98.3841 463.904 99.3681 465.544 100.079C467.238 100.789 469.015 101.145 470.874 101.145C472.186 101.145 473.47 100.981 474.728 100.653C475.985 100.27 477.16 99.7781 478.254 99.1768C479.347 98.5754 480.304 97.8374 481.124 96.9628C481.998 96.0881 482.654 95.1041 483.092 94.0108L489.324 95.7328C488.613 97.3181 487.629 98.7668 486.372 100.079C485.169 101.391 483.748 102.539 482.108 103.523C480.522 104.452 478.746 105.19 476.778 105.737C474.81 106.283 472.76 106.557 470.628 106.557ZM485.306 81.4648C485.142 79.4422 484.622 77.5835 483.748 75.8888C482.928 74.1395 481.862 72.6635 480.55 71.4609C479.292 70.2582 477.816 69.3289 476.122 68.6729C474.427 67.9622 472.623 67.6069 470.71 67.6069C468.796 67.6069 466.992 67.9622 465.298 68.6729C463.603 69.3289 462.1 70.2855 460.788 71.5429C459.531 72.7455 458.492 74.1942 457.672 75.8888C456.907 77.5835 456.442 79.4422 456.278 81.4648H485.306Z" fill="black"/>
<path d="M470.628 106.557C467.402 106.557 464.45 105.983 461.772 104.835C459.093 103.632 456.797 102.019 454.884 99.9968C452.971 97.9741 451.467 95.6234 450.374 92.9448C449.335 90.2115 448.816 87.3415 448.816 84.3348C448.816 81.3281 449.335 78.4855 450.374 75.8068C451.467 73.1282 452.971 70.7775 454.884 68.7549C456.852 66.7322 459.175 65.1469 461.854 63.9989C464.532 62.7962 467.484 62.1949 470.71 62.1949C473.935 62.1949 476.86 62.7962 479.484 63.9989C482.162 65.2015 484.431 66.8142 486.29 68.8369C488.148 70.8049 489.57 73.1282 490.554 75.8068C491.592 78.4308 492.112 81.1642 492.112 84.0068C492.112 84.6081 492.084 85.1548 492.03 85.6468C492.03 86.1388 492.002 86.5215 491.948 86.7948H456.442C456.606 88.9268 457.098 90.8674 457.918 92.6168C458.738 94.3661 459.804 95.8694 461.116 97.1268C462.428 98.3841 463.904 99.3681 465.544 100.079C467.238 100.789 469.015 101.145 470.874 101.145C472.186 101.145 473.47 100.981 474.728 100.653C475.985 100.27 477.16 99.7781 478.254 99.1768C479.347 98.5754 480.304 97.8374 481.124 96.9628C481.998 96.0881 482.654 95.1041 483.092 94.0108L489.324 95.7328C488.613 97.3181 487.629 98.7668 486.372 100.079C485.169 101.391 483.748 102.539 482.108 103.523C480.522 104.452 478.746 105.19 476.778 105.737C474.81 106.283 472.76 106.557 470.628 106.557ZM485.306 81.4648C485.142 79.4422 484.622 77.5835 483.748 75.8888C482.928 74.1395 481.862 72.6635 480.55 71.4609C479.292 70.2582 477.816 69.3289 476.122 68.6729C474.427 67.9622 472.623 67.6069 470.71 67.6069C468.796 67.6069 466.992 67.9622 465.298 68.6729C463.603 69.3289 462.1 70.2855 460.788 71.5429C459.531 72.7455 458.492 74.1942 457.672 75.8888C456.907 77.5835 456.442 79.4422 456.278 81.4648H485.306Z" fill="#292929"/>
<path d="M514.155 106.557C509.672 106.557 506.283 105.053 503.987 102.047C501.691 99.0401 500.543 94.5574 500.543 88.5988V62.9329H507.759V87.2048C507.759 95.9514 510.793 100.325 516.861 100.325C519.813 100.325 522.574 99.3954 525.143 97.5368C527.767 95.6234 529.708 93.0268 530.965 89.7468V62.9329H538.181V96.8808C538.181 98.5754 538.946 99.4501 540.477 99.5048V105.737C539.657 105.846 539.001 105.901 538.509 105.901C538.071 105.955 537.634 105.983 537.197 105.983C535.775 105.983 534.573 105.573 533.589 104.753C532.66 103.878 532.167 102.812 532.113 101.555L531.949 96.5528C530.036 99.7781 527.521 102.265 524.405 104.015C521.289 105.709 517.872 106.557 514.155 106.557Z" fill="black"/>
<path d="M514.155 106.557C509.672 106.557 506.283 105.053 503.987 102.047C501.691 99.0401 500.543 94.5574 500.543 88.5988V62.9329H507.759V87.2048C507.759 95.9514 510.793 100.325 516.861 100.325C519.813 100.325 522.574 99.3954 525.143 97.5368C527.767 95.6234 529.708 93.0268 530.965 89.7468V62.9329H538.181V96.8808C538.181 98.5754 538.946 99.4501 540.477 99.5048V105.737C539.657 105.846 539.001 105.901 538.509 105.901C538.071 105.955 537.634 105.983 537.197 105.983C535.775 105.983 534.573 105.573 533.589 104.753C532.66 103.878 532.167 102.812 532.113 101.555L531.949 96.5528C530.036 99.7781 527.521 102.265 524.405 104.015C521.289 105.709 517.872 106.557 514.155 106.557Z" fill="#292929"/>
<path d="M615.555 105.737H608.339V81.7928C608.339 77.3102 607.601 74.0028 606.125 71.8709C604.703 69.7389 602.571 68.6729 599.729 68.6729C596.777 68.6729 594.125 69.7389 591.775 71.8709C589.479 73.9482 587.839 76.6542 586.855 79.9888V105.737H579.639V81.7928C579.639 77.2008 578.928 73.8662 577.507 71.7889C576.085 69.7115 573.953 68.6729 571.111 68.6729C568.213 68.6729 565.589 69.7115 563.239 71.7889C560.888 73.8115 559.221 76.5175 558.237 79.9068V105.737H551.021V62.9329H557.581V72.1169C559.33 68.9462 561.599 66.5135 564.387 64.8189C567.175 63.0696 570.318 62.1949 573.817 62.1949C577.425 62.1949 580.267 63.1789 582.345 65.1469C584.477 67.0602 585.789 69.5475 586.281 72.6089C590.107 65.6662 595.547 62.1949 602.599 62.1949C605.059 62.1949 607.109 62.6596 608.749 63.5889C610.443 64.4635 611.783 65.7209 612.767 67.3609C613.751 68.9462 614.461 70.8322 614.899 73.0188C615.336 75.2055 615.555 77.5835 615.555 80.1528V105.737Z" fill="black"/>
<path d="M615.555 105.737H608.339V81.7928C608.339 77.3102 607.601 74.0028 606.125 71.8709C604.703 69.7389 602.571 68.6729 599.729 68.6729C596.777 68.6729 594.125 69.7389 591.775 71.8709C589.479 73.9482 587.839 76.6542 586.855 79.9888V105.737H579.639V81.7928C579.639 77.2008 578.928 73.8662 577.507 71.7889C576.085 69.7115 573.953 68.6729 571.111 68.6729C568.213 68.6729 565.589 69.7115 563.239 71.7889C560.888 73.8115 559.221 76.5175 558.237 79.9068V105.737H551.021V62.9329H557.581V72.1169C559.33 68.9462 561.599 66.5135 564.387 64.8189C567.175 63.0696 570.318 62.1949 573.817 62.1949C577.425 62.1949 580.267 63.1789 582.345 65.1469C584.477 67.0602 585.789 69.5475 586.281 72.6089C590.107 65.6662 595.547 62.1949 602.599 62.1949C605.059 62.1949 607.109 62.6596 608.749 63.5889C610.443 64.4635 611.783 65.7209 612.767 67.3609C613.751 68.9462 614.461 70.8322 614.899 73.0188C615.336 75.2055 615.555 77.5835 615.555 80.1528V105.737Z" fill="#292929"/>
<path d="M273.453 164.673C269.666 168.741 265.316 170.775 260.402 170.775C257.542 170.775 254.883 170.151 252.426 168.902C250.009 167.654 247.915 166.022 246.142 164.008C244.37 161.954 242.96 159.618 241.913 156.999C240.906 154.381 240.402 151.682 240.402 148.903C240.402 146.003 240.906 143.264 241.913 140.686C242.92 138.068 244.31 135.772 246.082 133.798C247.854 131.784 249.969 130.193 252.426 129.025C254.883 127.857 257.542 127.272 260.402 127.272C264.551 127.272 267.954 128.138 270.613 129.871C273.312 131.603 275.366 133.858 276.776 136.638L272.607 139.538C271.318 137.04 269.606 135.188 267.471 133.979C265.336 132.771 262.939 132.167 260.281 132.167C258.106 132.167 256.132 132.65 254.36 133.617C252.587 134.543 251.077 135.792 249.828 137.363C248.579 138.893 247.613 140.686 246.928 142.74C246.243 144.754 245.901 146.849 245.901 149.024C245.901 151.32 246.283 153.495 247.049 155.549C247.814 157.563 248.861 159.356 250.191 160.927C251.52 162.457 253.091 163.666 254.903 164.552C256.716 165.438 258.69 165.881 260.825 165.881C265.497 165.881 269.706 163.626 273.453 159.114V153.193H264.208V149.084H278.045V170.473H273.453V164.673Z" fill="black"/>
<path d="M273.453 164.673C269.666 168.741 265.316 170.775 260.402 170.775C257.542 170.775 254.883 170.151 252.426 168.902C250.009 167.654 247.915 166.022 246.142 164.008C244.37 161.954 242.96 159.618 241.913 156.999C240.906 154.381 240.402 151.682 240.402 148.903C240.402 146.003 240.906 143.264 241.913 140.686C242.92 138.068 244.31 135.772 246.082 133.798C247.854 131.784 249.969 130.193 252.426 129.025C254.883 127.857 257.542 127.272 260.402 127.272C264.551 127.272 267.954 128.138 270.613 129.871C273.312 131.603 275.366 133.858 276.776 136.638L272.607 139.538C271.318 137.04 269.606 135.188 267.471 133.979C265.336 132.771 262.939 132.167 260.281 132.167C258.106 132.167 256.132 132.65 254.36 133.617C252.587 134.543 251.077 135.792 249.828 137.363C248.579 138.893 247.613 140.686 246.928 142.74C246.243 144.754 245.901 146.849 245.901 149.024C245.901 151.32 246.283 153.495 247.049 155.549C247.814 157.563 248.861 159.356 250.191 160.927C251.52 162.457 253.091 163.666 254.903 164.552C256.716 165.438 258.69 165.881 260.825 165.881C265.497 165.881 269.706 163.626 273.453 159.114V153.193H264.208V149.084H278.045V170.473H273.453V164.673Z" fill="#292929"/>
<path d="M294.169 171.078C292.678 171.078 291.289 170.836 290 170.352C288.711 169.829 287.583 169.124 286.616 168.238C285.69 167.352 284.945 166.324 284.381 165.156C283.857 163.948 283.595 162.639 283.595 161.229C283.595 159.779 283.917 158.47 284.562 157.302C285.206 156.093 286.113 155.066 287.281 154.22C288.489 153.374 289.899 152.71 291.51 152.226C293.162 151.743 294.954 151.501 296.888 151.501C298.418 151.501 299.969 151.642 301.54 151.924C303.111 152.206 304.501 152.589 305.709 153.072V150.534C305.709 147.956 304.984 145.942 303.534 144.492C302.084 143.002 300.03 142.257 297.371 142.257C294.189 142.257 290.846 143.485 287.341 145.942L285.589 142.498C289.657 139.759 293.746 138.39 297.855 138.39C302.003 138.39 305.226 139.498 307.522 141.713C309.858 143.928 311.026 147.05 311.026 151.078V163.948C311.026 165.197 311.59 165.841 312.718 165.881V170.473C312.154 170.554 311.691 170.614 311.328 170.655C310.966 170.695 310.583 170.715 310.18 170.715C309.133 170.715 308.287 170.413 307.643 169.809C307.038 169.164 306.676 168.399 306.555 167.513L306.434 165.277C305.024 167.17 303.232 168.62 301.057 169.627C298.922 170.594 296.626 171.078 294.169 171.078ZM295.559 167.09C297.452 167.09 299.204 166.747 300.815 166.063C302.467 165.338 303.715 164.391 304.561 163.223C305.327 162.457 305.709 161.672 305.709 160.866V156.214C303.131 155.207 300.453 154.703 297.673 154.703C295.015 154.703 292.84 155.267 291.148 156.395C289.496 157.523 288.671 158.993 288.671 160.806C288.671 161.692 288.832 162.518 289.154 163.283C289.516 164.049 290 164.713 290.604 165.277C291.249 165.841 291.994 166.284 292.84 166.606C293.685 166.929 294.592 167.09 295.559 167.09Z" fill="black"/>
<path d="M294.169 171.078C292.678 171.078 291.289 170.836 290 170.352C288.711 169.829 287.583 169.124 286.616 168.238C285.69 167.352 284.945 166.324 284.381 165.156C283.857 163.948 283.595 162.639 283.595 161.229C283.595 159.779 283.917 158.47 284.562 157.302C285.206 156.093 286.113 155.066 287.281 154.22C288.489 153.374 289.899 152.71 291.51 152.226C293.162 151.743 294.954 151.501 296.888 151.501C298.418 151.501 299.969 151.642 301.54 151.924C303.111 152.206 304.501 152.589 305.709 153.072V150.534C305.709 147.956 304.984 145.942 303.534 144.492C302.084 143.002 300.03 142.257 297.371 142.257C294.189 142.257 290.846 143.485 287.341 145.942L285.589 142.498C289.657 139.759 293.746 138.39 297.855 138.39C302.003 138.39 305.226 139.498 307.522 141.713C309.858 143.928 311.026 147.05 311.026 151.078V163.948C311.026 165.197 311.59 165.841 312.718 165.881V170.473C312.154 170.554 311.691 170.614 311.328 170.655C310.966 170.695 310.583 170.715 310.18 170.715C309.133 170.715 308.287 170.413 307.643 169.809C307.038 169.164 306.676 168.399 306.555 167.513L306.434 165.277C305.024 167.17 303.232 168.62 301.057 169.627C298.922 170.594 296.626 171.078 294.169 171.078ZM295.559 167.09C297.452 167.09 299.204 166.747 300.815 166.063C302.467 165.338 303.715 164.391 304.561 163.223C305.327 162.457 305.709 161.672 305.709 160.866V156.214C303.131 155.207 300.453 154.703 297.673 154.703C295.015 154.703 292.84 155.267 291.148 156.395C289.496 157.523 288.671 158.993 288.671 160.806C288.671 161.692 288.832 162.518 289.154 163.283C289.516 164.049 290 164.713 290.604 165.277C291.249 165.841 291.994 166.284 292.84 166.606C293.685 166.929 294.592 167.09 295.559 167.09Z" fill="#292929"/>
<path d="M331.189 171.078C328.652 171.078 326.154 170.695 323.697 169.93C321.24 169.124 319.125 167.976 317.353 166.486L319.649 162.921C321.502 164.331 323.355 165.398 325.208 166.123C327.061 166.808 329.014 167.15 331.069 167.15C333.365 167.15 335.177 166.707 336.506 165.821C337.876 164.894 338.561 163.605 338.561 161.954C338.561 161.189 338.379 160.544 338.017 160.021C337.654 159.457 337.111 158.973 336.386 158.57C335.66 158.168 334.734 157.805 333.606 157.483C332.478 157.161 331.169 156.818 329.679 156.456C327.786 155.972 326.154 155.509 324.785 155.066C323.415 154.623 322.287 154.099 321.401 153.495C320.515 152.891 319.871 152.166 319.468 151.32C319.065 150.474 318.864 149.427 318.864 148.178C318.864 146.607 319.166 145.217 319.77 144.009C320.414 142.76 321.28 141.733 322.368 140.928C323.455 140.082 324.724 139.457 326.174 139.054C327.665 138.611 329.256 138.39 330.948 138.39C333.324 138.39 335.54 138.773 337.594 139.538C339.648 140.303 341.38 141.31 342.79 142.559L340.373 145.761C339.044 144.593 337.554 143.727 335.902 143.163C334.251 142.559 332.559 142.257 330.827 142.257C328.893 142.257 327.242 142.68 325.872 143.526C324.543 144.331 323.878 145.64 323.878 147.453C323.878 148.178 323.999 148.782 324.241 149.266C324.523 149.749 324.966 150.172 325.57 150.534C326.174 150.897 326.94 151.219 327.866 151.501C328.833 151.783 329.981 152.085 331.31 152.407C333.405 152.891 335.217 153.394 336.748 153.918C338.319 154.401 339.608 154.985 340.615 155.67C341.662 156.355 342.428 157.161 342.911 158.087C343.435 159.014 343.696 160.141 343.696 161.471C343.696 164.411 342.569 166.747 340.313 168.479C338.057 170.212 335.016 171.078 331.189 171.078Z" fill="black"/>
<path d="M331.189 171.078C328.652 171.078 326.154 170.695 323.697 169.93C321.24 169.124 319.125 167.976 317.353 166.486L319.649 162.921C321.502 164.331 323.355 165.398 325.208 166.123C327.061 166.808 329.014 167.15 331.069 167.15C333.365 167.15 335.177 166.707 336.506 165.821C337.876 164.894 338.561 163.605 338.561 161.954C338.561 161.189 338.379 160.544 338.017 160.021C337.654 159.457 337.111 158.973 336.386 158.57C335.66 158.168 334.734 157.805 333.606 157.483C332.478 157.161 331.169 156.818 329.679 156.456C327.786 155.972 326.154 155.509 324.785 155.066C323.415 154.623 322.287 154.099 321.401 153.495C320.515 152.891 319.871 152.166 319.468 151.32C319.065 150.474 318.864 149.427 318.864 148.178C318.864 146.607 319.166 145.217 319.77 144.009C320.414 142.76 321.28 141.733 322.368 140.928C323.455 140.082 324.724 139.457 326.174 139.054C327.665 138.611 329.256 138.39 330.948 138.39C333.324 138.39 335.54 138.773 337.594 139.538C339.648 140.303 341.38 141.31 342.79 142.559L340.373 145.761C339.044 144.593 337.554 143.727 335.902 143.163C334.251 142.559 332.559 142.257 330.827 142.257C328.893 142.257 327.242 142.68 325.872 143.526C324.543 144.331 323.878 145.64 323.878 147.453C323.878 148.178 323.999 148.782 324.241 149.266C324.523 149.749 324.966 150.172 325.57 150.534C326.174 150.897 326.94 151.219 327.866 151.501C328.833 151.783 329.981 152.085 331.31 152.407C333.405 152.891 335.217 153.394 336.748 153.918C338.319 154.401 339.608 154.985 340.615 155.67C341.662 156.355 342.428 157.161 342.911 158.087C343.435 159.014 343.696 160.141 343.696 161.471C343.696 164.411 342.569 166.747 340.313 168.479C338.057 170.212 335.016 171.078 331.189 171.078Z" fill="#292929"/>
<path d="M367.571 171.078C364.953 171.078 362.637 170.433 360.623 169.144C358.649 167.855 357.078 166.224 355.91 164.25V183.343H350.593V138.934H355.306V144.855C356.554 142.921 358.166 141.371 360.139 140.202C362.153 138.994 364.369 138.39 366.786 138.39C368.961 138.39 370.955 138.833 372.767 139.719C374.58 140.605 376.151 141.814 377.48 143.344C378.809 144.835 379.837 146.567 380.562 148.541C381.327 150.514 381.71 152.569 381.71 154.703C381.71 156.959 381.367 159.094 380.683 161.108C379.998 163.082 379.031 164.814 377.782 166.304C376.534 167.754 375.043 168.923 373.311 169.809C371.579 170.655 369.666 171.078 367.571 171.078ZM365.94 166.486C367.511 166.486 368.921 166.163 370.169 165.519C371.458 164.834 372.546 163.948 373.432 162.86C374.358 161.732 375.063 160.464 375.547 159.054C376.03 157.644 376.272 156.194 376.272 154.703C376.272 153.133 375.99 151.642 375.426 150.232C374.862 148.782 374.097 147.534 373.13 146.486C372.163 145.399 371.015 144.553 369.686 143.949C368.397 143.304 366.987 142.982 365.456 142.982C364.49 142.982 363.483 143.183 362.435 143.586C361.428 143.949 360.462 144.452 359.535 145.097C358.649 145.701 357.864 146.446 357.179 147.332C356.534 148.178 356.111 149.084 355.91 150.051V159.054C356.353 160.101 356.917 161.088 357.602 162.014C358.287 162.901 359.072 163.686 359.958 164.371C360.844 165.015 361.791 165.539 362.798 165.942C363.805 166.304 364.852 166.486 365.94 166.486Z" fill="black"/>
<path d="M367.571 171.078C364.953 171.078 362.637 170.433 360.623 169.144C358.649 167.855 357.078 166.224 355.91 164.25V183.343H350.593V138.934H355.306V144.855C356.554 142.921 358.166 141.371 360.139 140.202C362.153 138.994 364.369 138.39 366.786 138.39C368.961 138.39 370.955 138.833 372.767 139.719C374.58 140.605 376.151 141.814 377.48 143.344C378.809 144.835 379.837 146.567 380.562 148.541C381.327 150.514 381.71 152.569 381.71 154.703C381.71 156.959 381.367 159.094 380.683 161.108C379.998 163.082 379.031 164.814 377.782 166.304C376.534 167.754 375.043 168.923 373.311 169.809C371.579 170.655 369.666 171.078 367.571 171.078ZM365.94 166.486C367.511 166.486 368.921 166.163 370.169 165.519C371.458 164.834 372.546 163.948 373.432 162.86C374.358 161.732 375.063 160.464 375.547 159.054C376.03 157.644 376.272 156.194 376.272 154.703C376.272 153.133 375.99 151.642 375.426 150.232C374.862 148.782 374.097 147.534 373.13 146.486C372.163 145.399 371.015 144.553 369.686 143.949C368.397 143.304 366.987 142.982 365.456 142.982C364.49 142.982 363.483 143.183 362.435 143.586C361.428 143.949 360.462 144.452 359.535 145.097C358.649 145.701 357.864 146.446 357.179 147.332C356.534 148.178 356.111 149.084 355.91 150.051V159.054C356.353 160.101 356.917 161.088 357.602 162.014C358.287 162.901 359.072 163.686 359.958 164.371C360.844 165.015 361.791 165.539 362.798 165.942C363.805 166.304 364.852 166.486 365.94 166.486Z" fill="#292929"/>
<path d="M405.518 143.586C402.86 143.667 400.503 144.351 398.449 145.64C396.435 146.929 395.005 148.722 394.159 151.018V170.473H388.842V138.934H393.797V146.245C394.884 144.069 396.314 142.317 398.087 140.988C399.859 139.618 401.752 138.853 403.766 138.692C404.169 138.692 404.511 138.692 404.793 138.692C405.075 138.692 405.317 138.712 405.518 138.752V143.586Z" fill="black"/>
<path d="M405.518 143.586C402.86 143.667 400.503 144.351 398.449 145.64C396.435 146.929 395.005 148.722 394.159 151.018V170.473H388.842V138.934H393.797V146.245C394.884 144.069 396.314 142.317 398.087 140.988C399.859 139.618 401.752 138.853 403.766 138.692C404.169 138.692 404.511 138.692 404.793 138.692C405.075 138.692 405.317 138.712 405.518 138.752V143.586Z" fill="#292929"/>
<path d="M411.396 170.473V138.934H416.713V170.473H411.396ZM411.396 133.012V126.366H416.713V133.012H411.396Z" fill="black"/>
<path d="M411.396 170.473V138.934H416.713V170.473H411.396ZM411.396 133.012V126.366H416.713V133.012H411.396Z" fill="#292929"/>
<path d="M423.811 154.643C423.811 152.428 424.193 150.333 424.959 148.359C425.724 146.386 426.812 144.674 428.221 143.224C429.631 141.733 431.303 140.565 433.236 139.719C435.21 138.833 437.405 138.39 439.822 138.39C442.964 138.39 445.663 139.095 447.919 140.505C450.215 141.874 451.947 143.727 453.115 146.063L447.919 147.695C447.113 146.204 445.985 145.056 444.535 144.251C443.085 143.405 441.474 142.982 439.701 142.982C438.251 142.982 436.882 143.284 435.593 143.888C434.304 144.452 433.196 145.258 432.27 146.305C431.343 147.352 430.598 148.581 430.034 149.991C429.51 151.4 429.249 152.951 429.249 154.643C429.249 156.295 429.531 157.845 430.094 159.295C430.658 160.746 431.404 162.014 432.33 163.102C433.297 164.149 434.404 164.975 435.653 165.579C436.942 166.183 438.312 166.486 439.762 166.486C440.688 166.486 441.595 166.365 442.481 166.123C443.407 165.841 444.233 165.479 444.958 165.035C445.723 164.592 446.388 164.089 446.952 163.525C447.516 162.921 447.919 162.276 448.16 161.591L453.356 163.162C452.873 164.331 452.188 165.398 451.302 166.365C450.456 167.331 449.449 168.157 448.281 168.842C447.113 169.527 445.804 170.071 444.354 170.473C442.944 170.876 441.454 171.078 439.883 171.078C437.506 171.078 435.331 170.634 433.357 169.748C431.383 168.862 429.692 167.674 428.282 166.183C426.872 164.693 425.764 162.961 424.959 160.987C424.193 158.973 423.811 156.858 423.811 154.643Z" fill="black"/>
<path d="M423.811 154.643C423.811 152.428 424.193 150.333 424.959 148.359C425.724 146.386 426.812 144.674 428.221 143.224C429.631 141.733 431.303 140.565 433.236 139.719C435.21 138.833 437.405 138.39 439.822 138.39C442.964 138.39 445.663 139.095 447.919 140.505C450.215 141.874 451.947 143.727 453.115 146.063L447.919 147.695C447.113 146.204 445.985 145.056 444.535 144.251C443.085 143.405 441.474 142.982 439.701 142.982C438.251 142.982 436.882 143.284 435.593 143.888C434.304 144.452 433.196 145.258 432.27 146.305C431.343 147.352 430.598 148.581 430.034 149.991C429.51 151.4 429.249 152.951 429.249 154.643C429.249 156.295 429.531 157.845 430.094 159.295C430.658 160.746 431.404 162.014 432.33 163.102C433.297 164.149 434.404 164.975 435.653 165.579C436.942 166.183 438.312 166.486 439.762 166.486C440.688 166.486 441.595 166.365 442.481 166.123C443.407 165.841 444.233 165.479 444.958 165.035C445.723 164.592 446.388 164.089 446.952 163.525C447.516 162.921 447.919 162.276 448.16 161.591L453.356 163.162C452.873 164.331 452.188 165.398 451.302 166.365C450.456 167.331 449.449 168.157 448.281 168.842C447.113 169.527 445.804 170.071 444.354 170.473C442.944 170.876 441.454 171.078 439.883 171.078C437.506 171.078 435.331 170.634 433.357 169.748C431.383 168.862 429.692 167.674 428.282 166.183C426.872 164.693 425.764 162.961 424.959 160.987C424.193 158.973 423.811 156.858 423.811 154.643Z" fill="#292929"/>
<path d="M473.647 171.078C471.271 171.078 469.096 170.655 467.122 169.809C465.148 168.923 463.457 167.734 462.047 166.244C460.637 164.753 459.529 163.021 458.724 161.048C457.958 159.034 457.576 156.919 457.576 154.703C457.576 152.488 457.958 150.393 458.724 148.42C459.529 146.446 460.637 144.714 462.047 143.224C463.497 141.733 465.209 140.565 467.182 139.719C469.156 138.833 471.331 138.39 473.708 138.39C476.084 138.39 478.239 138.833 480.173 139.719C482.147 140.605 483.818 141.794 485.188 143.284C486.557 144.734 487.605 146.446 488.33 148.42C489.095 150.353 489.478 152.367 489.478 154.462C489.478 154.905 489.458 155.308 489.417 155.67C489.417 156.033 489.397 156.315 489.357 156.516H463.195C463.316 158.087 463.678 159.517 464.282 160.806C464.886 162.095 465.672 163.203 466.639 164.129C467.605 165.056 468.693 165.781 469.901 166.304C471.15 166.828 472.459 167.09 473.829 167.09C474.795 167.09 475.742 166.969 476.669 166.727C477.595 166.445 478.461 166.083 479.267 165.64C480.072 165.197 480.777 164.653 481.381 164.008C482.026 163.364 482.509 162.639 482.831 161.833L487.423 163.102C486.9 164.27 486.175 165.338 485.248 166.304C484.362 167.271 483.315 168.117 482.106 168.842C480.938 169.527 479.629 170.071 478.179 170.473C476.729 170.876 475.218 171.078 473.647 171.078ZM484.463 152.589C484.342 151.098 483.959 149.729 483.315 148.48C482.711 147.191 481.925 146.104 480.958 145.217C480.032 144.331 478.944 143.646 477.696 143.163C476.447 142.639 475.118 142.378 473.708 142.378C472.298 142.378 470.969 142.639 469.72 143.163C468.471 143.646 467.364 144.351 466.397 145.278C465.471 146.164 464.705 147.231 464.101 148.48C463.537 149.729 463.195 151.098 463.074 152.589H484.463Z" fill="black"/>
<path d="M473.647 171.078C471.271 171.078 469.096 170.655 467.122 169.809C465.148 168.923 463.457 167.734 462.047 166.244C460.637 164.753 459.529 163.021 458.724 161.048C457.958 159.034 457.576 156.919 457.576 154.703C457.576 152.488 457.958 150.393 458.724 148.42C459.529 146.446 460.637 144.714 462.047 143.224C463.497 141.733 465.209 140.565 467.182 139.719C469.156 138.833 471.331 138.39 473.708 138.39C476.084 138.39 478.239 138.833 480.173 139.719C482.147 140.605 483.818 141.794 485.188 143.284C486.557 144.734 487.605 146.446 488.33 148.42C489.095 150.353 489.478 152.367 489.478 154.462C489.478 154.905 489.458 155.308 489.417 155.67C489.417 156.033 489.397 156.315 489.357 156.516H463.195C463.316 158.087 463.678 159.517 464.282 160.806C464.886 162.095 465.672 163.203 466.639 164.129C467.605 165.056 468.693 165.781 469.901 166.304C471.15 166.828 472.459 167.09 473.829 167.09C474.795 167.09 475.742 166.969 476.669 166.727C477.595 166.445 478.461 166.083 479.267 165.64C480.072 165.197 480.777 164.653 481.381 164.008C482.026 163.364 482.509 162.639 482.831 161.833L487.423 163.102C486.9 164.27 486.175 165.338 485.248 166.304C484.362 167.271 483.315 168.117 482.106 168.842C480.938 169.527 479.629 170.071 478.179 170.473C476.729 170.876 475.218 171.078 473.647 171.078ZM484.463 152.589C484.342 151.098 483.959 149.729 483.315 148.48C482.711 147.191 481.925 146.104 480.958 145.217C480.032 144.331 478.944 143.646 477.696 143.163C476.447 142.639 475.118 142.378 473.708 142.378C472.298 142.378 470.969 142.639 469.72 143.163C468.471 143.646 467.364 144.351 466.397 145.278C465.471 146.164 464.705 147.231 464.101 148.48C463.537 149.729 463.195 151.098 463.074 152.589H484.463Z" fill="#292929"/>
<path fill-rule="evenodd" clip-rule="evenodd" d="M152.998 0H12.0477C5.39324 0 0 5.38767 0 12.0332C0 18.6796 5.39324 24.0664 12.0477 24.0664L37.5851 24.0946C41.3105 24.0946 44.3318 27.1113 44.3318 30.8331C44.3318 34.555 41.3105 37.5717 37.5851 37.5717H16.2042V88.6779H12.0477C5.39324 88.6779 0 94.0647 0 100.711C0 107.358 5.39324 112.744 12.0477 112.744L37.5851 112.779C41.3105 112.779 44.3318 115.796 44.3318 119.518C44.3318 123.239 41.3105 126.256 37.5851 126.256H16.2042V177.355H12.0477C5.39324 177.355 0 182.743 0 189.388C0 196.034 5.39324 201.421 12.0477 201.421H92.4873C84.2961 189.411 79.5082 174.901 79.5082 159.276C79.5082 119.806 110.059 87.4581 148.844 84.5095L148.846 74.6057L148.844 69.6354V37.5717V24.0664H153C159.653 24.0664 165.048 18.6796 165.048 12.0332C165.048 5.80319 160.306 0.678746 154.23 0.0620461C153.825 0.020682 153.414 0 152.998 0ZM151.34 189.506C150.838 189.802 150.531 190.339 150.531 190.92V214.144C150.531 215.743 152.589 216.399 153.517 215.094L181.963 175.105C182.991 173.661 181.314 171.84 179.786 172.741L151.34 189.506ZM146.664 214.141C146.664 215.741 144.605 216.396 143.678 215.092L115.251 175.106C114.224 173.661 115.901 171.841 117.429 172.742L145.856 189.506C146.357 189.802 146.664 190.339 146.664 190.92V214.141ZM150.531 180.325C150.531 181.597 151.916 182.386 153.013 181.739L183.691 163.637C184.837 162.962 184.746 161.279 183.535 160.729L152.857 146.81C151.767 146.316 150.531 147.111 150.531 148.305V180.325ZM153.58 103.807C152.72 102.382 150.526 102.991 150.526 104.654L150.528 140.838C150.528 141.482 150.905 142.066 151.492 142.333L181.58 155.984C183.051 156.651 184.503 155.023 183.669 153.641L153.58 103.807ZM113.66 160.729C112.448 161.279 112.358 162.962 113.503 163.637L144.181 181.739C145.278 182.386 146.664 181.597 146.664 180.325V148.305C146.664 147.111 145.427 146.316 144.338 146.81L113.66 160.729ZM146.664 104.654C146.664 102.99 144.471 102.381 143.61 103.806L113.521 153.641C112.687 155.023 114.139 156.651 115.611 155.984L145.7 142.332C146.287 142.066 146.664 141.481 146.664 140.837V104.654Z" fill="#602FEE"/>
</svg>
